Motion_pl12
version=1
nRows=8
nColumns=43
inDegrees=yes
endheader
time	pelvis_tilt	pelvis_list	pelvis_rotation	pelvis_tx	pelvis_ty	pelvis_tz	hip_flexion_r	hip_adduction_r	hip_rotation_r	knee_angle_r	ankle_angle_r	subtalar_angle_r	mtp_angle_r	hip_flexion_l	hip_adduction_l	hip_rotation_l	knee_angle_l	ankle_angle_l	subtalar_angle_l	mtp_angle_l	lumbar_extension	lumbar_bending	lumbar_rotation	neck_flexion	neck_lateral_bending	neck_rotation	arm_flex_r	arm_add_r	arm_rot_r	elbow_flex_r	pro_sup_r	wrist_flex_r	wrist_dev_r	hand_finger_flex_r	arm_flex_l	arm_add_l	arm_rot_l	elbow_flex_l	pro_sup_l	wrist_flex_l	wrist_dev_l	hand_finger_flex_l
      1.47250000	     -0.01816379	     -5.92319395	     87.45296251	     -0.01991161	      0.78080937	      0.35710793	     54.40198876	     -5.29932905	     -4.75765608	    -86.25330890	     16.91228879	      9.16527806	     29.99128761	     53.79754883	    -10.93012699	     -4.25343573	    -84.83560874	     13.45397336	     23.48796484	     34.27006237	    -47.78148299	     -1.01099427	      0.91121599	     15.42731449	     -1.52399947	      5.22198547	     49.91400752	    -43.50928383	      3.26159850	     75.08381285	    101.37096377	      0.74637807	    -12.08202969	     -7.18948924	     32.30020673	    -42.97506454	     -8.24109113	     60.88731514	    101.46261131	    -23.81660966	    -10.33864897	     -9.24671297
      1.47500000	      0.02047763	     -5.89335484	     87.38817442	     -0.01987099	      0.78376679	      0.35618471	     53.91369291	     -5.19649016	     -4.78651368	    -85.63935756	     16.88235049	      9.15010792	     29.78025850	     53.31497222	    -10.95455072	     -4.34589045	    -84.24003914	     13.37593588	     23.39832161	     34.19867404	    -47.66595186	     -1.01678097	      0.95525765	     15.14592758	     -1.56677742	      5.26266490	     48.93159808	    -43.39968468	      2.83670642	     75.01257064	    101.51575358	      0.75134870	    -12.12377708	     -7.13890106	     31.30662601	    -42.75357904	     -8.58505522	     60.82089865	    101.47236520	    -23.75067861	    -10.35376698	     -9.36121728
      1.47750000	      0.03891036	     -6.01330985	     87.35087305	     -0.01997097	      0.78658207	      0.35564077	     53.59859693	     -5.13123840	     -4.81749196	    -84.96064622	     16.80997234	      9.14715627	     29.70194463	     53.00773430	    -10.90799480	     -4.39659688	    -83.57121722	     13.30121647	     23.35526973	     34.16338718	    -47.41745913	     -0.99607564	      0.96961792	     14.97795771	     -1.58943097	      5.26628552	     48.16203931	    -43.46580444	      2.78970547	     74.85777851	    101.56304803	      0.78330625	    -12.10677593	     -7.10875128	     30.48958373	    -42.62988486	     -8.62097946	     60.55921112	    101.47331794	    -23.71708798	    -10.31439467	     -9.38418918
      1.48000000	      0.13444143	     -5.75093545	     87.28001909	     -0.01968217	      0.79005191	      0.35435179	     52.79571824	     -4.93354309	     -4.87203879	    -84.32564568	     16.88471299	      9.00706994	     29.23322698	     52.22643616	    -11.03362193	     -4.51859045	    -82.96458007	     13.26011200	     23.16659700	     34.02123356	    -47.57150201	     -1.02679480	      1.06321790	     14.78492116	     -1.45875626	      5.25442813	     46.91589031	    -43.00300594	      1.70068794	     74.82518809	    101.89299185	      0.73292717	    -12.24925827	     -6.98324192	     29.48316505	    -42.15795496	     -9.43251820	     60.57100640	    101.56124840	    -23.38693643	    -10.50960518	     -9.53815186
      1.48250000	      0.13748719	     -5.85569660	     87.23028874	     -0.01985830	      0.79275345	      0.35372440	     52.48103416	     -4.90880614	     -4.92729361	    -83.68847592	     16.78048294	      9.00153649	     29.14682559	     51.91726511	    -10.96881687	     -4.56763642	    -82.34581837	     13.15003539	     23.14111015	     33.98227616	    -47.32107973	     -1.00640878	      1.08449375	     14.46811859	     -1.54550536	      5.25782756	     46.12072188	    -43.13447068	      1.69778461	     74.71473371	    101.94946733	      0.78451979	    -12.24155732	     -6.94072306	     28.62328593	    -42.03796933	     -9.42263097	     60.33385489	    101.57933814	    -23.31903155	    -10.48359692	     -9.54162599
      1.48500000	      0.18908806	     -5.73623304	     87.19871501	     -0.01999093	      0.79552957	      0.35257757	     51.92405438	     -4.84550311	     -4.99936058	    -83.18115209	     16.72458484	      8.92375752	     28.93762654	     51.39014094	    -10.97236050	     -4.63915863	    -81.85571536	     12.97794949	     23.03822326	     33.90365461	    -47.22661974	     -0.96476912	      1.13750298	     13.80777148	     -1.64932455	      5.23186434	     45.02265852	    -42.93729571	      1.13026330	     74.63125548	    102.02323909	      0.67036420	    -12.32186528	     -6.91810320	     27.63707272	    -41.64297503	     -9.83404082	     60.22341628	    101.55339387	    -23.18385772	    -10.56248850	     -9.56006008
      1.48750000	      0.27835645	     -5.43382601	     87.18248433	     -0.01985942	      0.79936221	      0.35153714	     51.01083486	     -4.69899252	     -5.09026047	    -82.40062955	     16.88417979	      8.73731224	     28.19567065	     50.52918398	    -11.00461978	     -4.71598690	    -81.11036816	     12.94481413	     22.90093639	     33.71454447	    -47.49896703	     -0.95700053	      1.26078434	     13.86645611	     -1.42215112	      5.10220945	     43.91812751	    -42.65649372	      0.15699567	     74.59679685	    102.69931859	      0.77356559	    -12.48973128	     -6.61129061	     26.94417781	    -41.13390881	    -10.59730770	     60.05695709	    101.73182279	    -22.06783936	    -10.74639005	     -9.41064714
      1.49000000	      0.29317380	     -5.47157435	     87.14616805	     -0.02005729	      0.80193067	      0.35070725	     50.62200749	     -4.66719958	     -5.13811705	    -81.81841855	     16.80470396	      8.75125979	     28.00596446	     50.17965582	    -10.95379292	     -4.76705520	    -80.57671883	     12.78209377	     22.87294525	     33.64937302	    -47.26888717	     -0.91646010	      1.27441210	     13.30426546	     -1.59091460	      5.10784196	     43.01572911	    -42.64215383	     -0.02541887	     74.47770095	    102.78788472	      0.75965378	    -12.50388298	     -6.56902981	     26.04311493	    -40.86351348	    -10.76073917	     59.85998530	    101.72318314	    -21.99016499	    -10.69365959	     -9.43967143
